<?xml version="1.0" standalone="no"?>
<!DOCTYPE svg PUBLIC "-//W3C//DTD SVG 20010904//EN"
 "http://www.w3.org/TR/2001/REC-SVG-20010904/DTD/svg10.dtd">
<svg version="1.0" xmlns="http://www.w3.org/2000/svg"
 width="387.000000pt" height="448.000000pt" viewBox="0 0 387.000000 448.000000"
 preserveAspectRatio="xMidYMid meet">

<g transform="translate(0.000000,448.000000) scale(0.100000,-0.100000)"
fill="#000000" stroke="none">
<path d="M2325 3060 c-3 -6 1 -7 9 -4 18 7 21 14 7 14 -6 0 -13 -4 -16 -10z"/>
<path d="M1596 2958 c3 -5 10 -6 15 -3 13 9 11 12 -6 12 -8 0 -12 -4 -9 -9z"/>
<path d="M1720 2936 c0 -2 8 -10 18 -17 15 -13 16 -12 3 4 -13 16 -21 21 -21
13z"/>
<path d="M2179 2923 c-13 -16 -12 -17 4 -4 9 7 17 15 17 17 0 8 -8 3 -21 -13z"/>
<path d="M1345 2900 c-3 -5 -1 -10 4 -10 6 0 11 5 11 10 0 6 -2 10 -4 10 -3 0
-8 -4 -11 -10z"/>
<path d="M2630 2900 c-9 -6 -10 -10 -3 -10 6 0 15 5 18 10 8 12 4 12 -15 0z"/>
<path d="M1305 2870 c3 -5 8 -10 11 -10 2 0 4 5 4 10 0 6 -5 10 -11 10 -5 0
-7 -4 -4 -10z"/>
<path d="M2150 2810 c-8 -5 -10 -10 -5 -10 6 0 17 5 25 10 8 5 11 10 5 10 -5
0 -17 -5 -25 -10z"/>
<path d="M1164 2801 c4 -5 1 -12 -4 -14 -6 -3 -5 -4 2 -3 15 3 23 26 8 26 -6
0 -9 -4 -6 -9z"/>
<path d="M1375 2769 c-4 -6 -5 -12 -2 -15 2 -3 7 2 10 11 7 17 1 20 -8 4z"/>
<path d="M2423 2765 c0 -8 4 -12 9 -9 5 3 6 10 3 15 -9 13 -12 11 -12 -6z"/>
<path d="M1508 2753 c7 -3 16 -2 19 1 4 3 -2 6 -13 5 -11 0 -14 -3 -6 -6z"/>
<path d="M2335 2750 c-3 -5 -1 -10 4 -10 6 0 11 5 11 10 0 6 -2 10 -4 10 -3 0
-8 -4 -11 -10z"/>
<path d="M2580 2751 c0 -6 4 -13 10 -16 6 -3 7 1 4 9 -7 18 -14 21 -14 7z"/>
<path d="M1840 2739 c0 -5 5 -7 10 -4 6 3 10 8 10 11 0 2 -4 4 -10 4 -5 0 -10
-5 -10 -11z"/>
<path d="M1426 2673 c-6 -14 -5 -15 5 -6 7 7 10 15 7 18 -3 3 -9 -2 -12 -12z"/>
<path d="M2473 2675 c0 -8 4 -12 9 -9 5 3 6 10 3 15 -9 13 -12 11 -12 -6z"/>
<path d="M1720 2636 c0 -2 7 -7 16 -10 8 -3 12 -2 9 4 -6 10 -25 14 -25 6z"/>
<path d="M1760 2599 c0 -5 5 -7 10 -4 6 3 10 8 10 11 0 2 -4 4 -10 4 -5 0 -10
-5 -10 -11z"/>
<path d="M1160 2570 c0 -5 5 -10 11 -10 5 0 7 5 4 10 -3 6 -8 10 -11 10 -2 0
-4 -4 -4 -10z"/>
<path d="M2260 2576 c0 -3 9 -10 20 -16 11 -6 20 -8 20 -6 0 3 -9 10 -20 16
-11 6 -20 8 -20 6z"/>
<path d="M2618 2573 c7 -3 16 -2 19 1 4 3 -2 6 -13 5 -11 0 -14 -3 -6 -6z"/>
<path d="M2736 2563 c-6 -14 -5 -15 5 -6 7 7 10 15 7 18 -3 3 -9 -2 -12 -12z"/>
<path d="M1375 2550 c-3 -6 1 -7 9 -4 18 7 21 14 7 14 -6 0 -13 -4 -16 -10z"/>
<path d="M2570 2551 c0 -6 4 -12 8 -15 5 -3 9 1 9 9 0 8 -4 15 -9 15 -4 0 -8
-4 -8 -9z"/>
<path d="M2625 2551 c-6 -11 13 -26 22 -17 4 3 1 6 -6 6 -7 0 -9 5 -6 10 3 6
4 10 1 10 -3 0 -7 -4 -11 -9z"/>
<path d="M1085 2540 c-3 -5 -1 -10 4 -10 6 0 11 5 11 10 0 6 -2 10 -4 10 -3 0
-8 -4 -11 -10z"/>
<path d="M1625 2541 c-6 -5 -19 -11 -30 -13 -19 -4 -18 -4 3 -10 16 -4 25 -1
32 13 12 21 9 24 -5 10z"/>
<path d="M2820 2539 c0 -5 5 -7 10 -4 6 3 10 8 10 11 0 2 -4 4 -10 4 -5 0 -10
-5 -10 -11z"/>
<path d="M2446 2512 c-3 -5 1 -9 9 -9 8 0 12 4 9 9 -3 4 -7 8 -9 8 -2 0 -6 -4
-9 -8z"/>
<path d="M2776 2465 c-11 -8 -16 -15 -10 -15 5 0 18 7 28 15 11 8 16 15 10 15
-5 0 -18 -7 -28 -15z"/>
<path d="M2228 2453 c7 -3 16 -2 19 1 4 3 -2 6 -13 5 -11 0 -14 -3 -6 -6z"/>
<path d="M2300 2451 c0 -5 5 -13 10 -16 6 -3 10 -2 10 4 0 5 -4 13 -10 16 -5
3 -10 2 -10 -4z"/>
<path d="M1350 2399 c0 -5 5 -7 10 -4 6 3 10 8 10 11 0 2 -4 4 -10 4 -5 0 -10
-5 -10 -11z"/>
<path d="M2440 2302 c0 -6 -8 -13 -17 -15 -16 -4 -16 -5 -1 -6 18 -1 34 16 24
26 -3 4 -6 1 -6 -5z"/>
<path d="M1225 2289 c-4 -6 -4 -13 -1 -16 3 -4 6 -1 6 6 0 7 5 9 12 5 7 -4 8
-3 4 4 -9 15 -13 15 -21 1z"/>
<path d="M1461 2296 c20 -17 49 -25 55 -14 4 6 3 8 -4 4 -6 -3 -13 -2 -17 4
-3 5 -13 10 -22 10 -9 0 -14 -2 -12 -4z"/>
<path d="M1366 2282 c-2 -4 -1 -14 5 -22 7 -12 9 -10 9 8 0 23 -5 28 -14 14z"/>
<path d="M2706 2273 c-6 -14 -5 -15 5 -6 7 7 10 15 7 18 -3 3 -9 -2 -12 -12z"/>
<path d="M867 1764 c-4 -4 -7 -24 -7 -45 0 -43 18 -53 80 -47 55 5 46 23 -10
20 -27 -2 -51 0 -51 5 -9 56 -10 55 47 51 33 -2 53 1 51 7 -4 12 -99 19 -110
9z"/>
<path d="M1082 1758 c-15 -15 -15 -61 0 -76 7 -7 33 -12 58 -12 52 0 70 13 70
50 0 37 -18 50 -70 50 -25 0 -51 -5 -58 -12z m110 -38 c-4 -29 -6 -30 -53 -30
-48 0 -49 1 -49 30 0 30 1 30 53 30 l54 0 -5 -30z"/>
<path d="M1301 1718 c1 -29 3 -45 6 -35 6 23 81 24 97 1 10 -13 12 -6 11 33
l0 48 -57 3 -58 3 1 -53z m107 20 c-3 -7 -25 -14 -51 -16 -37 -2 -47 0 -47 12
0 12 12 16 51 16 36 0 49 -4 47 -12z"/>
<path d="M1510 1718 c1 -46 2 -51 14 -35 9 12 27 17 59 17 37 0 47 4 52 20 11
34 -12 50 -71 50 l-54 0 0 -52z m108 15 c-2 -13 -15 -19 -46 -21 -37 -3 -42
-1 -42 17 0 18 6 21 46 21 38 0 45 -3 42 -17z"/>
<path d="M1732 1758 c-14 -14 -16 -47 -4 -66 5 -7 32 -13 62 -15 51 -2 55 0
64 26 16 43 -2 61 -60 65 -30 2 -54 -2 -62 -10z m108 -38 c0 -29 -1 -30 -50
-30 -49 0 -50 1 -50 30 0 29 1 30 50 30 49 0 50 -1 50 -30z"/>
<path d="M1951 1718 c1 -29 3 -45 6 -35 3 13 15 17 49 17 24 0 44 -4 44 -10 0
-5 3 -10 8 -10 4 0 7 19 7 43 l0 42 -57 3 -58 3 1 -53z m107 20 c-3 -7 -25
-14 -51 -16 -37 -2 -47 0 -47 12 0 12 12 16 51 16 36 0 49 -4 47 -12z"/>
<path d="M2192 1725 c-35 -49 -40 -64 -17 -45 8 7 35 11 64 8 48 -3 50 -2 37
17 -7 11 -19 30 -27 43 -8 12 -16 22 -19 22 -4 0 -21 -20 -38 -45z m58 -6 c0
-5 -11 -9 -25 -9 -23 0 -24 2 -15 21 9 16 14 18 26 8 8 -6 14 -15 14 -20z"/>
<path d="M2386 1754 c-10 -25 -7 -59 6 -72 14 -14 94 -16 103 -2 4 6 -13 10
-44 10 -50 0 -51 1 -51 29 0 27 3 29 41 33 22 2 43 0 45 -4 3 -4 10 -8 16 -8
7 0 6 6 -2 15 -18 21 -106 21 -114 -1z"/>
<path d="M2603 1720 c0 -30 2 -43 4 -27 2 15 2 39 0 55 -2 15 -4 2 -4 -28z"/>
<path d="M2707 1733 c-8 -48 6 -63 59 -63 48 0 74 19 74 54 0 34 -19 46 -76
46 l-51 0 -6 -37z m113 -13 c0 -29 -1 -30 -50 -30 -49 0 -50 1 -50 30 0 29 1
30 50 30 49 0 50 -1 50 -30z"/>
<path d="M2932 1718 c1 -43 2 -46 5 -15 5 44 17 46 63 7 19 -17 38 -30 42 -30
4 0 7 21 6 48 -1 43 -2 44 -5 10 -2 -21 -7 -38 -10 -38 -3 0 -22 13 -42 28
-62 49 -61 49 -59 -10z"/>
<path d="M400 1286 l0 -216 45 0 45 0 -2 213 -3 212 -42 3 -43 3 0 -215z"/>
<path d="M617 1487 c-7 -19 -9 -362 -1 -391 5 -23 11 -26 50 -26 l44 0 0 140
c0 77 4 140 8 140 5 0 56 -53 113 -117 153 -173 143 -165 192 -161 41 3 42 4
45 43 2 22 1 118 -3 213 l-7 172 -44 0 -43 0 -3 -144 -3 -145 -128 145 c-128
144 -128 144 -172 144 -25 0 -45 -5 -48 -13z"/>
<path d="M1273 1489 c-17 -5 -42 -24 -55 -42 -22 -30 -23 -40 -23 -202 l0
-170 45 0 45 0 3 163 2 162 165 0 165 0 0 -50 0 -50 -130 0 -130 0 0 -45 0
-45 130 0 129 0 3 -67 3 -68 45 0 45 0 3 150 c3 169 -2 188 -59 240 l-39 35
-158 -1 c-86 0 -171 -5 -189 -10z"/>
<path d="M1845 1492 c-3 -3 -5 -99 -5 -214 l0 -208 213 2 212 3 0 45 0 45
-162 3 -163 2 0 160 c0 88 -3 161 -7 161 -32 5 -83 6 -88 1z"/>
<path d="M2498 1493 l-108 -4 0 -44 0 -45 95 0 95 0 0 -134 c0 -73 3 -148 6
-165 6 -29 9 -31 50 -31 l44 0 0 165 0 165 101 0 100 0 -3 48 -3 47 -135 1
c-74 0 -183 -1 -242 -3z"/>
<path d="M3054 1481 c-55 -33 -64 -70 -64 -250 l0 -161 50 0 50 0 0 165 0 165
163 -2 162 -3 3 -42 3 -43 -129 0 -130 0 -4 -46 c-2 -25 -1 -47 1 -50 2 -2 62
-4 133 -4 l128 0 0 -71 0 -70 48 3 47 3 3 154 c2 137 0 158 -18 195 -32 67
-61 76 -253 76 -141 0 -166 -3 -193 -19z"/>
</g>
</svg>
